<svg width="177" height="108" viewBox="0 0 177 108" fill="none" xmlns="http://www.w3.org/2000/svg">
<g filter="url(#filter0_d_5_2)">
<rect x="8" y="4" width="42" height="92" rx="6" stroke="white" stroke-width="8" shape-rendering="crispEdges"/>
</g>
<g filter="url(#filter1_d_5_2)">
<rect x="127" y="4" width="42" height="92" rx="6" stroke="white" stroke-width="8" shape-rendering="crispEdges"/>
</g>
<path d="M116.121 32.1213C117.293 30.9497 117.293 29.0503 116.121 27.8787L97.0294 8.7868C95.8579 7.61522 93.9584 7.61522 92.7868 8.7868C91.6152 9.95837 91.6152 11.8579 92.7868 13.0294L109.757 30L92.7868 46.9706C91.6152 48.1421 91.6152 50.0416 92.7868 51.2132C93.9584 52.3848 95.8579 52.3848 97.0294 51.2132L116.121 32.1213ZM64 33L114 33V27L64 27V33Z" fill="white"/>
<path d="M59.8787 68.1213C58.7071 66.9497 58.7071 65.0503 59.8787 63.8787L78.9706 44.7868C80.1421 43.6152 82.0416 43.6152 83.2132 44.7868C84.3848 45.9584 84.3848 47.8579 83.2132 49.0294L66.2426 66L83.2132 82.9706C84.3848 84.1421 84.3848 86.0416 83.2132 87.2132C82.0416 88.3848 80.1421 88.3848 78.9706 87.2132L59.8787 68.1213ZM112 69L62 69V63L112 63V69Z" fill="white"/>
<defs>
<filter id="filter0_d_5_2" x="0" y="0" width="58" height="108" filterUnits="userSpaceOnUse" color-interpolation-filters="sRGB">
<feFlood flood-opacity="0" result="BackgroundImageFix"/>
<feColorMatrix in="SourceAlpha" type="matrix" values="0 0 0 0 0 0 0 0 0 0 0 0 0 0 0 0 0 0 127 0" result="hardAlpha"/>
<feOffset dy="4"/>
<feGaussianBlur stdDeviation="2"/>
<feComposite in2="hardAlpha" operator="out"/>
<feColorMatrix type="matrix" values="0 0 0 0 0 0 0 0 0 0 0 0 0 0 0 0 0 0 0.25 0"/>
<feBlend mode="normal" in2="BackgroundImageFix" result="effect1_dropShadow_5_2"/>
<feBlend mode="normal" in="SourceGraphic" in2="effect1_dropShadow_5_2" result="shape"/>
</filter>
<filter id="filter1_d_5_2" x="119" y="0" width="58" height="108" filterUnits="userSpaceOnUse" color-interpolation-filters="sRGB">
<feFlood flood-opacity="0" result="BackgroundImageFix"/>
<feColorMatrix in="SourceAlpha" type="matrix" values="0 0 0 0 0 0 0 0 0 0 0 0 0 0 0 0 0 0 127 0" result="hardAlpha"/>
<feOffset dy="4"/>
<feGaussianBlur stdDeviation="2"/>
<feComposite in2="hardAlpha" operator="out"/>
<feColorMatrix type="matrix" values="0 0 0 0 0 0 0 0 0 0 0 0 0 0 0 0 0 0 0.25 0"/>
<feBlend mode="normal" in2="BackgroundImageFix" result="effect1_dropShadow_5_2"/>
<feBlend mode="normal" in="SourceGraphic" in2="effect1_dropShadow_5_2" result="shape"/>
</filter>
</defs>
</svg>
